<svg xmlns="http://www.w3.org/2000/svg" version="1.1" xmlns:xlink="http://www.w3.org/1999/xlink" xmlns:svgjs="http://svgjs.dev/svgjs" viewBox="0 0 325 100"><defs><linearGradient x1="50%" y1="0%" x2="50%" y2="100%" id="ssspill-grad"><stop stop-color="hsl(37, 99%, 67%)" stop-opacity="1" offset="45%"></stop><stop stop-color="hsl(316, 73%, 52%)" stop-opacity="1" offset="100%"></stop></linearGradient></defs><rect width="100%" height="100%" fill="hsl(292, 100%, 22%)"></rect><g fill="url(#ssspill-grad)">
    <rect width="100%" height="40" fill="hsl(37, 99%, 67%)"></rect>

    <rect x="0" width="7.69%" height="87.34495731079063" rx="15"></rect>
      <rect x="50" width="7.69%" height="65.27908582518278" rx="15"></rect>
      <rect x="100" width="7.69%" height="76.8557317103531" rx="15"></rect>
      <rect x="150" width="7.69%" height="56.05811846430454" rx="15"></rect>
      <rect x="200" width="7.69%" height="55.20454224424691" rx="15"></rect>
      <rect x="250" width="7.69%" height="59.999940783794" rx="15"></rect>
      <rect x="300" width="7.69%" height="73.70343937206485" rx="15"></rect>
  </g><g fill="hsl(292, 100%, 22%)">
    <rect x="25" y="9.01915880311347" width="7.69%" height="60" rx="15"></rect>
      <rect x="75" y="18.124138054491826" width="7.69%" height="60" rx="15"></rect>
      <rect x="125" y="7.91436340234892" width="7.69%" height="60" rx="15"></rect>
      <rect x="175" y="10.10780440030453" width="7.69%" height="60" rx="15"></rect>
      <rect x="225" y="19.068038102873263" width="7.69%" height="60" rx="15"></rect>
      <rect x="275" y="19.820766413418745" width="7.69%" height="60" rx="15"></rect>
  </g></svg>